<?xml version="1.0" encoding="UTF-8"?> <svg xmlns="http://www.w3.org/2000/svg" id="Layer_1" data-name="Layer 1" viewBox="0 0 368 53.13"><defs><style> .cls-1 { fill: #282828; } .cls-1, .cls-2, .cls-3 { stroke-width: 0px; } .cls-2 { fill: #009e97; } .cls-3 { fill: #00667d; } </style></defs><g id="LEMR_Logo_-_Full_Descriptor" data-name="LEMR Logo - Full Descriptor"><g id="Descriptor"><g id="Housing_Monitor" data-name="Housing Monitor"><path id="r" class="cls-1" d="M368,42.83c-1.63-.21-2.78.42-2.78,2.19v4.23h-2.75v-9.01h2.75v1.26c.6-.94,1.67-1.48,2.78-1.42v2.75Z"></path><path id="o" class="cls-1" d="M351.08,44.75c-.08-2.68,2.02-4.92,4.7-5,2.68-.08,4.92,2.02,5,4.7.08,2.68-2.02,4.92-4.7,5-.05,0-.11,0-.16,0-2.62.06-4.79-2.02-4.84-4.63,0-.02,0-.05,0-.07M353.78,44.75c.12,1.19,1.18,2.05,2.37,1.93,1.19-.12,2.05-1.18,1.93-2.37-.11-1.1-1.04-1.95-2.15-1.94-1.21.02-2.18,1.02-2.16,2.23,0,.05,0,.1,0,.15"></path><path id="t" class="cls-1" d="M345.68,49.24v-6.84h-1.57v-2.17h1.57v-2.43h2.73v2.43h1.96v2.17h-1.96v6.84h-2.73Z"></path><path id="i" class="cls-1" d="M342.93,37.54c0,.84-.69,1.52-1.53,1.52,0,0,0,0,0,0h-.04c-.85.02-1.55-.65-1.57-1.49s.65-1.55,1.49-1.57c.03,0,.05,0,.08,0h.04c.85,0,1.53.68,1.54,1.52,0,0,0,.01,0,.02M342.74,49.24h-2.73v-9.01h2.73v9.01Z"></path><path id="n" class="cls-1" d="M332.07,49.24h-2.73v-9.01h2.73v.89c.6-.72,1.51-1.13,2.45-1.1,1.72-.1,3.2,1.22,3.29,2.94,0,.15,0,.3,0,.45v5.83h-2.74v-5.07c.1-.82-.49-1.57-1.31-1.67-.06,0-.12-.01-.18-.01-.84.01-1.52.7-1.51,1.55,0,.04,0,.09,0,.13v5.07Z"></path><path id="o-2" class="cls-1" d="M317.92,44.75c-.08-2.68,2.02-4.92,4.7-5.01,2.68-.08,4.92,2.02,5.01,4.7.08,2.68-2.02,4.92-4.7,5.01-.05,0-.11,0-.16,0-2.62.06-4.79-2.02-4.84-4.63,0-.02,0-.05,0-.07M320.61,44.75c.12,1.19,1.18,2.05,2.37,1.93,1.19-.12,2.05-1.18,1.93-2.37-.11-1.1-1.04-1.95-2.15-1.94-1.21.02-2.18,1.02-2.16,2.23,0,.05,0,.1,0,.15"></path><path id="M" class="cls-1" d="M308.45,49.25l-3.76-8.95v8.95h-2.73v-12.77h3.71l3.41,8.17,3.41-8.17h3.59v12.77h-2.73v-8.96l-3.76,8.95h-1.14Z"></path><path id="g" class="cls-1" d="M293.19,47.86c-.69.75-1.66,1.16-2.68,1.14-2.48-.12-4.39-2.23-4.26-4.71.11-2.31,1.96-4.15,4.26-4.26,1.02-.01,1.99.41,2.68,1.15v-.94h2.73v8.41c0,2.75-2.24,4.48-4.86,4.48-2.45,0-4.39-1.31-4.72-3.6h2.68c.26.89,1.13,1.46,2.05,1.35,1.1.08,2.05-.75,2.13-1.85,0-.08,0-.16,0-.23v-.93ZM291.09,42.39c-1.18,0-2.15.95-2.15,2.13s.95,2.15,2.13,2.15,2.15-.95,2.15-2.13c0,0,0-.01,0-.02.02-1.16-.91-2.11-2.07-2.13-.02,0-.05,0-.07,0"></path><path id="n-2" class="cls-1" d="M278.85,49.24h-2.73v-9.01h2.73v.89c.6-.72,1.51-1.13,2.45-1.1,1.72-.1,3.2,1.21,3.3,2.93,0,.15,0,.31,0,.46v5.83h-2.75v-5.08c.1-.82-.49-1.57-1.31-1.67-.06,0-.12-.01-.18-.01-.84.01-1.52.7-1.51,1.55,0,.04,0,.09,0,.13v5.07Z"></path><path id="i-2" class="cls-1" d="M274.06,37.54c0,.84-.69,1.52-1.53,1.52,0,0,0,0,0,0h-.04c-.85.02-1.55-.65-1.57-1.49s.65-1.55,1.49-1.57c.03,0,.05,0,.08,0h.04c.85,0,1.53.68,1.54,1.52,0,0,0,.01,0,.02M273.86,49.24h-2.73v-9.01h2.73v9.01Z"></path><path id="s" class="cls-1" d="M262.3,47.11l2.24-.86c.17.69.77,1.19,1.49,1.22.45.06.86-.26.92-.72,0-.02,0-.05,0-.07,0-1.54-4.13-.52-4.13-3.71.07-1.7,1.51-3.03,3.21-2.96.03,0,.06,0,.1,0,1.39-.08,2.67.75,3.17,2.05l-2.15.79c-.06-.48-.48-.84-.96-.84-.43-.04-.81.27-.85.71,0,.03,0,.05,0,.08,0,1.37,4.16.49,4.16,3.59-.09,1.79-1.62,3.16-3.4,3.07-.03,0-.06,0-.1,0-1.61.11-3.11-.84-3.69-2.35"></path><path id="u" class="cls-1" d="M256.98,47.13c.95,0,1.43-.65,1.43-1.71v-5.18h2.74v5.23c-.1,2.3-2.05,4.09-4.35,3.99-2.16-.09-3.89-1.83-3.99-3.99v-5.23h2.73v5.18c0,1.07.49,1.71,1.43,1.71"></path><path id="o-3" class="cls-1" d="M241.55,44.75c-.08-2.68,2.02-4.92,4.7-5,2.68-.08,4.92,2.02,5,4.7.08,2.68-2.02,4.92-4.7,5-.05,0-.11,0-.16,0-2.62.06-4.79-2.02-4.84-4.63,0-.02,0-.05,0-.07M244.25,44.75c.12,1.19,1.18,2.05,2.37,1.93,1.19-.12,2.05-1.18,1.93-2.37-.11-1.1-1.04-1.95-2.15-1.94-1.21.02-2.18,1.02-2.16,2.23,0,.05,0,.1,0,.15"></path><path id="H" class="cls-1" d="M236.9,43.87h-5.33v5.37h-2.78v-12.77h2.78v5.09h5.33v-5.09h2.8v12.77h-2.8v-5.37Z"></path></g><g id="Market_Rental" data-name="Market Rental"><rect id="l" class="cls-3" x="346.5" y="18.46" width="2.73" height="13.29"></rect><path id="a" class="cls-3" d="M334.47,27.25c-.15-2.45,1.72-4.57,4.17-4.72.05,0,.1,0,.15,0,1.03-.02,2.02.4,2.71,1.17v-.96h2.73v9.01h-2.73v-.96c-.68.77-1.68,1.2-2.71,1.17-2.46-.07-4.39-2.11-4.33-4.57,0-.05,0-.09,0-.14M341.57,27.25c-.1-1.21-1.16-2.11-2.37-2.01-1.21.1-2.11,1.16-2.01,2.37.09,1.14,1.04,2.02,2.19,2.02,1.24-.02,2.22-1.04,2.2-2.28,0-.03,0-.07,0-.1"></path><path id="t-2" class="cls-3" d="M332.09,29.62c.47,0,.92-.16,1.28-.46v2.41c-.57.26-1.19.39-1.82.39-1.67.17-3.16-1.05-3.33-2.73-.02-.16-.02-.33,0-.49v-3.83h-1.43v-2.17h1.43v-1.92l2.73-.82v2.75h2.26v2.17h-2.26v3.53c-.06.58.36,1.11.94,1.17.07,0,.14,0,.21,0"></path><path id="n-3" class="cls-3" d="M319.75,31.75h-2.73v-9.01h2.73v.89c.6-.72,1.51-1.13,2.45-1.1,1.72-.1,3.2,1.22,3.29,2.94,0,.15,0,.3,0,.45v5.82h-2.74v-5.07c.1-.83-.5-1.57-1.32-1.67-.06,0-.11,0-.17-.01-.84.01-1.52.7-1.51,1.55,0,.04,0,.09,0,.13v5.07Z"></path><path id="e" class="cls-3" d="M310.74,31.96c-2.6,0-4.71-2.11-4.71-4.71s2.11-4.71,4.71-4.71c3.04,0,4.86,2.47,4.55,5.49h-6.73c.21,1.05,1.13,1.79,2.2,1.77.74.09,1.46-.27,1.84-.91h2.59c-.57,1.94-2.42,3.22-4.44,3.08M308.61,26.33h4.09c-.16-.95-1-1.63-1.96-1.59-.99-.02-1.87.64-2.13,1.59"></path><path id="R-2" class="cls-3" d="M298.21,31.75h-2.78v-12.77h3.88c2.9,0,4.95,1.52,4.95,4.08.04,1.52-.87,2.9-2.27,3.46l3.71,5.23h-3.24l-3.3-4.72h-.95v4.72ZM298.21,24.82h1.08c1.3,0,2.13-.66,2.13-1.77s-.84-1.8-2.13-1.8h-1.08v3.57Z"></path><path id="t-3" class="cls-3" d="M288.61,29.62c.47,0,.92-.16,1.28-.46v2.41c-.57.26-1.19.39-1.82.39-1.67.17-3.16-1.05-3.33-2.73-.02-.16-.02-.33,0-.49v-3.83h-1.43v-2.17h1.43v-1.92l2.73-.82v2.75h2.26v2.17h-2.25v3.53c-.06.58.36,1.11.94,1.17.07,0,.14,0,.21,0"></path><path id="e-2" class="cls-3" d="M277.94,31.96c-2.6,0-4.71-2.11-4.71-4.71s2.11-4.71,4.71-4.71c3.04,0,4.86,2.47,4.55,5.49h-6.73c.21,1.05,1.13,1.79,2.2,1.77.74.09,1.46-.27,1.84-.91h2.59c-.57,1.94-2.42,3.22-4.44,3.08M275.8,26.33h4.09c-.16-.95-1-1.63-1.96-1.59-.99-.02-1.87.64-2.13,1.59"></path><path id="k" class="cls-3" d="M266.57,18.46v8.16l3.04-3.88h3.18l-3.46,4.2,3.58,4.81h-3.2l-3.15-4.39v4.39h-2.71v-13.29h2.71Z"></path><path id="r-3" class="cls-3" d="M262.23,25.33c-1.63-.21-2.78.42-2.78,2.19v4.23h-2.75v-9.01h2.75v1.26c.6-.94,1.67-1.48,2.78-1.42v2.75Z"></path><path id="a-2" class="cls-3" d="M244.7,27.25c-.15-2.45,1.72-4.57,4.17-4.72.05,0,.1,0,.15,0,1.03-.02,2.02.4,2.71,1.17v-.96h2.73v9.01h-2.73v-.96c-.68.77-1.68,1.2-2.71,1.17-2.46-.07-4.39-2.11-4.33-4.57,0-.05,0-.09,0-.14M251.8,27.25c-.1-1.21-1.16-2.11-2.37-2.01-1.21.1-2.11,1.16-2.01,2.37.09,1.14,1.04,2.02,2.19,2.02,1.24-.02,2.22-1.04,2.2-2.28,0-.03,0-.07,0-.1"></path><path id="M-2" class="cls-3" d="M235.26,31.75l-3.76-8.95v8.95h-2.73v-12.77h3.7l3.41,8.17,3.41-8.17h3.59v12.77h-2.73v-8.95l-3.76,8.96h-1.13Z"></path></g><g id="Low-end_of" data-name="Low-end of"><path id="f" class="cls-3" d="M321.52,3.25c-.25-.15-.54-.22-.84-.21-.64-.05-1.2.43-1.24,1.07,0,.07,0,.14,0,.21v.93h1.91v2.17h-1.91v6.84h-2.69v-6.84h-1.42v-2.17h1.42v-1.07c-.15-1.74,1.13-3.27,2.87-3.42.16-.01.32-.02.48,0,.48-.02.97.06,1.42.25v2.26Z"></path><path id="o-4" class="cls-3" d="M304.72,9.76c-.08-2.68,2.02-4.92,4.7-5s4.92,2.02,5,4.7c.08,2.68-2.02,4.92-4.7,5-.05,0-.11,0-.16,0-2.62.06-4.79-2.02-4.84-4.63,0-.02,0-.05,0-.07M307.42,9.76c-.12,1.19.74,2.25,1.93,2.37,1.19.12,2.25-.74,2.37-1.93.01-.14.01-.29,0-.44.13-1.19-.74-2.25-1.92-2.38s-2.25.74-2.38,1.92c-.02.15-.02.3,0,.46"></path><path id="d" class="cls-3" d="M296.82,6.21V.96h2.73v13.29h-2.73v-.96c-.68.78-1.68,1.21-2.71,1.17-2.46-.07-4.39-2.11-4.33-4.57,0-.05,0-.09,0-.14-.15-2.45,1.72-4.57,4.17-4.72.05,0,.1,0,.15,0,1.03-.03,2.02.4,2.71,1.17M292.5,9.76c-.09,1.21.83,2.26,2.04,2.35,1.21.09,2.26-.83,2.35-2.04,0-.1,0-.21,0-.31.09-1.21-.83-2.26-2.04-2.35-1.21-.09-2.26.83-2.35,2.04,0,.1,0,.21,0,.31"></path><path id="n-4" class="cls-3" d="M282.42,14.26h-2.73V5.25h2.73v.89c.6-.72,1.5-1.13,2.45-1.11,1.72-.1,3.2,1.21,3.3,2.93,0,.16,0,.31,0,.47v5.82h-2.75v-5.07c.1-.82-.49-1.57-1.31-1.67-.06,0-.12-.01-.18-.01-.84.01-1.52.7-1.51,1.55,0,.04,0,.09,0,.13v5.07Z"></path><path id="e-3" class="cls-3" d="M273.41,14.47c-2.6,0-4.71-2.11-4.71-4.71s2.11-4.71,4.71-4.71c3.04,0,4.86,2.47,4.55,5.49h-6.74c.21,1.05,1.13,1.79,2.2,1.77.74.09,1.46-.27,1.84-.91h2.59c-.57,1.94-2.42,3.22-4.44,3.08M271.27,8.83h4.09c-.16-.95-1-1.63-1.96-1.59-.99-.02-1.87.64-2.13,1.59"></path><rect id="_-" data-name=" -" class="cls-3" x="262.41" y="7.71" width="4.65" height="2.64"></rect><path id="w" class="cls-3" d="M255.27,5.25l1.82,5.11,1.84-5.11h2.83l-3.51,9.01h-1.77l-1.87-5.18-1.89,5.18h-1.75l-3.53-9.01h2.69l1.82,5.11,1.84-5.11h1.49Z"></path><path id="o-5" class="cls-3" d="M237.42,9.76c-.08-2.68,2.02-4.92,4.7-5s4.92,2.02,5,4.7c.08,2.68-2.02,4.92-4.7,5-.05,0-.11,0-.16,0-2.62.06-4.79-2.02-4.84-4.63,0-.02,0-.05,0-.07M240.12,9.76c-.12,1.19.74,2.25,1.93,2.37,1.19.12,2.25-.74,2.37-1.93.01-.14.01-.29,0-.44.13-1.19-.74-2.25-1.92-2.38s-2.25.74-2.38,1.92c-.02.15-.02.3,0,.46"></path><path id="L-2" class="cls-3" d="M228.78,1.49h2.78v10.46h5.04v2.31h-7.82V1.49Z"></path></g></g><g id="Wordmark"><path id="r-4" class="cls-1" d="M215.13,9.09c-8.11-1.29-16.21,2.58-16.21,14.83v25.32h-8.29V1.44h8.29v8.47c2.79-6.29,9.38-10,16.21-9.11v8.29Z"></path><path id="m_3" data-name="m 3" class="cls-3" d="M157.14,0h0l-19.53,14.35,4.14,3.04v3.85l15.38-11.13,14.76,11.12v28.01h8.3v-31.85L157.14,0Z"></path><path id="m_2" data-name="m 2" class="cls-2" d="M118.69,0h0l-15.39,11.31v9.94l15.38-11.13,14.76,11.12v28.01h8.3v-31.85L118.69,0Z"></path><rect id="m_1" data-name="m 1" class="cls-1" x="95" y="1.44" width="8.3" height="47.81"></rect><path id="e-4" class="cls-1" d="M84.85,16.05c-1.12-3.38-2.96-6.48-5.4-9.07-2.08-2.2-4.59-3.94-7.38-5.11C69.04.61,65.78-.03,62.49,0c-6.62,0-12.96,2.63-17.62,7.32-2.31,2.31-4.14,5.05-5.4,8.06-1.32,3.17-2,6.57-1.99,10.01-.01,3.42.67,6.8,1.99,9.95,2.56,6.06,7.4,10.87,13.47,13.39,3.12,1.3,6.46,1.96,9.84,1.95,11.2,0,19.83-6.07,23.09-16.23h0s-8.41-.01-8.41-.01h0c-1.12,2.73-3.06,5.05-5.54,6.63-2.73,1.62-5.87,2.43-9.04,2.34-2.2,0-4.39-.39-6.44-1.17-1.96-.75-3.76-1.87-5.31-3.29-1.56-1.44-2.84-3.16-3.78-5.06-.99-2.03-1.61-4.23-1.84-6.48h40.85c.22-3.85-.29-7.7-1.5-11.35M48.12,15.45c.99-1.63,2.25-3.09,3.72-4.31,1.46-1.2,3.12-2.15,4.9-2.79,1.85-.66,3.8-1,5.76-.99,4.02-.09,7.91,1.41,10.83,4.18,2.57,2.53,4.2,5.87,4.61,9.45h-32.03c.43-1.95,1.18-3.82,2.22-5.54"></path><path id="L-3" class="cls-1" d="M0,1.45h8.48v40.61h26.89v7.19H0V1.45Z"></path></g></g></svg> 